<svg xmlns="http://www.w3.org/2000/svg" xmlns:xlink="http://www.w3.org/1999/xlink" width="584" height="439.996" viewBox="0 0 584 439.996"><g><rect width="2.073" height="24.873" x="144.538" y="293.999" fill="#f2f2f2"/><path fill="#f2f2f2" d="M155.13312,294.68973h-19.80797c-1.77737,0-3.22329-1.44592-3.22329-3.22346v-7.37127c0-1.77754,1.44592-3.22346,3.22329-3.22346h19.80797c1.77737,0,3.22329,1.44592,3.22329,3.22346v7.37127c0,1.77754-1.44592,3.22346-3.22329,3.22346Zm-12.43654-12.43636c-5.08814,0-9.2129,4.12475-9.2129,9.2129h0c0,1.01712,.82453,1.84165,1.84164,1.84165h19.8078c1.01701,0,1.84147-.82445,1.84147-1.84147v-7.37144c0-1.01711-.82453-1.84164-1.84164-1.84164h-12.43637Z"/></g><g><rect width="2.073" height="24.873" x="262.538" y="353.999" fill="#f2f2f2"/><path fill="#f2f2f2" d="M273.13312,354.68973h-19.80797c-1.77737,0-3.22329-1.44592-3.22329-3.22346v-7.37127c0-1.77754,1.44592-3.22346,3.22329-3.22346h19.80797c1.77737,0,3.22329,1.44592,3.22329,3.22346v7.37127c0,1.77754-1.44592,3.22346-3.22329,3.22346Zm-12.43654-12.43636c-5.08814,0-9.2129,4.12475-9.2129,9.2129h0c0,1.01712,.82453,1.84165,1.84164,1.84165h19.8078c1.01701,0,1.84147-.82445,1.84147-1.84147v-7.37144c0-1.01711-.82453-1.84164-1.84164-1.84164h-12.43637Z"/></g><g><polygon fill="#ffb6b6" points="478.491 429.604 470.513 429.604 466.717 398.83 478.493 398.831 478.491 429.604"/><path fill="#2f2e41" d="M478.77188,437.9274l-24.53447-.00093v-.31024c.00034-5.27386,4.27564-9.54906,9.5495-9.54935h.00059l4.48152-3.3999,8.36154,3.40044,2.14171,.00005-.00039,9.85994Z"/></g><g><polygon fill="#ffb6b6" points="439.141 429.604 431.162 429.604 427.367 398.83 439.142 398.831 439.141 429.604"/><path fill="#2f2e41" d="M439.42145,437.9274l-24.53447-.00093v-.31024c.00034-5.27386,4.27564-9.54906,9.5495-9.54935h.00059l4.48152-3.3999,8.36154,3.40044,2.14171,.00005-.00039,9.85994Z"/></g><polygon fill="#2f2e41" points="443.357 255.473 497.464 253.014 502.874 284.494 499.431 295.316 496.48 307.613 487.626 350.898 480.248 414.843 464.589 414.843 464.262 354.095 467.935 349.078 467.935 345.731 465.426 301.464 449.014 344.258 450.489 350.16 446.062 360.982 440.746 414.843 426.106 414.843 422.944 341.306 434.749 296.053 434.749 287.691 436.716 283.756 443.357 255.473"/><polygon fill="#3f3d56" points="479.018 154.392 459.295 154.392 456.884 165.213 437.7 174.067 444.587 224.239 440.652 240.471 440.652 246.865 438.684 252.768 437.7 271.601 505.088 276.378 500.661 266.541 502.137 260.638 500.661 257.195 496.726 228.174 499.677 172.1 484.429 166.689 479.018 154.392"/><path fill="#ffb6b6" d="M377.16723,247.59371l14.1268-11.74936,7.83785,7.13358-15.37772,11.89073c-.11148,.58313-.3083,1.16002-.59928,1.7126-1.58258,3.00545-5.30194,4.15892-8.30739,2.57634s-4.15892-5.30194-2.57634-8.30739c1.00928-1.91671,2.88811-3.07556,4.89608-3.2565Z"/><path fill="#3f3d56" d="M450.19973,178.12804l-7.5069-3.02145c-2.32783-1.42243-5.3221-1.11642-7.30293,.75932-3.77366,3.57346-9.33546,9.52605-9.83202,13.97743,0,0-17.91979,18.55005-18.15194,22.05469-.23215,3.50464-24.81002,29.97621-24.81002,29.97621l11.44861,8.50917,46.3119-44.26719,4.16983-22.4254c1.96145-2.85816,8.6314-3.75531,5.67346-5.56277Z"/><circle cx="469.872" cy="135.807" r="16.863" fill="#ffb6b6"/><path fill="#2f2e41" d="M487.90002,143.77774c-.39001-.47998-.55005-1.07996-.94-1.56,.01996,.79004,.00995,1.59003,.14996,2.35999,.02002,.12006,.04004,.27002,.07001,.46002,.01001,.03998,.02002,.06,.03003,.10004,0,.01996,.00995,.03998,.00995,.06-1.18994,2.25-2.54999,3.63995-3.52997,4.02997-2.41998,.97003-5.69,1.79999-5.90002,1.96002,.23004-.36005,8.81-13.78003,5.90002-14.75-2.95001-.98004-2.70001,.84998-2.70001,.84998-1.34332-5.50821-4.04309-7.7746-8.12-6.75-5.32001-.19-10.52997-1.81-13.22998,3.78003-.31-1.29004-.78003-2.55005-1.33002-3.70001-.10999,1.22998-.10999,2.59998-.51001,3.79999-3.78009,3.29681-6.04504,2.73456-7.47998,.59998,0-.42999,.01001-.87,.03998-1.29999,.03003-.28998,.06-.56,.10999-.83997,.16003-.81,.79004-1.28003,1.10004-1.98999-.69,.37994-1.41003,.73999-2.03003,1.21997-.08997,.07001-.21997,.15997-.37,.27002-.38995-2.55005-1.73004-11.09998,2.54999-8.23999s1.97003-2.95001,1.97003-2.95001h5.13s.88-1.16003,2.44-2.39001c.27997,.08002,.53998,.15997,.79999,.26001,.77002,.29999-1.71002-2.48999-1.06-2.06-.25-.73999,2.34998,1.97998,1.98999,1.27997-.06-.12,.12006-2.06995,.01001-2.27997,2.86005-1.72998,16.58032-1.73856,21,2,5.55975,4.70291-1.47784,2.30338,5.59003,11.54999,2.81866,3.68753,2.62738,7.15048-1.69,14.22998Z"/><path fill="#f2f2f2" d="M348.05861,439.99554H64.94826c-7.1377,0-12.94482-5.80762-12.94482-12.94531V116.94037c0-7.1377,5.80713-12.94482,12.94482-12.94482H348.05861c7.1377,0,12.94482,5.80713,12.94482,12.94482V427.05023c0,7.1377-5.80713,12.94531-12.94482,12.94531ZM137.9247,105.99554c-46.34843,0-83.92126,37.57283-83.92126,83.92126v237.13343c0,6.04493,4.90038,10.94531,10.94531,10.94531H348.05861c6.04466,0,10.94482-4.90016,10.94482-10.94482V116.94037c0-6.04466-4.90016-10.94482-10.94482-10.94482H137.9247Z"/><path fill="#f2f2f2" d="M515.05861,439.99554h-124.11035c-7.1377,0-12.94482-5.80762-12.94482-12.94531V116.94037c0-7.1377,5.80713-12.94482,12.94482-12.94482h124.11035c7.1377,0,12.94482,5.80713,12.94482,12.94482V427.05023c0,7.1377-5.80713,12.94531-12.94482,12.94531ZM390.94826,105.99554c-6.03516,0-10.94482,4.90967-10.94482,10.94482V427.05023c0,6.03516,4.90967,10.94531,10.94482,10.94531h124.11035c6.03516,0,10.94482-4.91016,10.94482-10.94531V116.94037c0-6.03516-4.90967-10.94482-10.94482-10.94482h-124.11035Z"/><path fill="#f2f2f2" d="M570.90991,0H13.09998C5.87988,0,0,5.86987,0,13.08997V199.8999c0,6.92017,5.40991,12.62012,12.21997,13.06006,.29004,.03003,.58008,.04004,.88,.04004H52.21997v-2H13.09998c-.29993,0-.58997-.01001-.88-.04004-5.70996-.44995-10.21997-5.23999-10.21997-11.06006V13.08997C2,6.96997,6.97998,2,13.09998,2H570.90991c6.12012,0,11.09009,4.96997,11.09009,11.08997V199.8999c0,6.12012-4.96997,11.1001-11.09009,11.1001h-44.68994v2h44.68994c7.21997,0,13.09009-5.88013,13.09009-13.1001V13.08997c0-7.22009-5.87012-13.08997-13.09009-13.08997Z"/><g><path fill="#fd8600" d="M193.79775,315.37974h-21.59009c0-.25,.02002-.5,.06006-.77002,.56006-4.23999,5.52002-10.48999,8.5-11.79004,.56995-.23999,1.06995-.31006,1.44995-.13989,.48999,.20996,.79004,.81995,.79004,1.90991,0,2.57007,1.62,3.88,3.60999,4.84998-.48999,.76001-1.12,1.37-1.95007,1.56995,1.65015,.3501,4.19006,.80005,6.17004,.31006,1.46008,.76001,2.60999,1.70996,2.89001,3.29004,.05005,.23999,.07007,.5,.07007,.77002Z"/><circle cx="181.343" cy="301.27" r="1.66" fill="#3f3d56"/><path fill="#e6e6e6" d="M183.00344,327.60972c7.17969,0,13-5.82031,13-13h-26c0,7.17969,5.82031,13,13,13Z"/></g><g><path fill="#fd8600" d="M247.79775,355.37974h-21.59009c0-.25,.02002-.5,.06006-.77002,.25-1.90002,1.38989-4.19995,2.82996-6.28003,.69006,.09009,1.30994,.33008,1.78003,.81006-.22009-.61011-.4801-1.34009-.81995-2.1001,1.56995-2,3.34985-3.62988,4.70996-4.21997,.56995-.23999,1.06995-.31006,1.44995-.13989,.48999,.20996,.79004,.81995,.79004,1.90991,0,6.34009,9.82007,4.97998,10.71997,10.02002,.05005,.23999,.07007,.5,.07007,.77002Z"/><circle cx="235.343" cy="341.27" r="1.66" fill="#3f3d56"/><path fill="#e6e6e6" d="M237.00344,367.60972c7.17969,0,13-5.82031,13-13h-26c0,7.17969,5.82031,13,13,13Z"/></g><g><path fill="#fd8600" d="M234.74556,301.86759c-5.38042,0-9.74213,4.36171-9.74213,9.74213h19.48425c0-5.38042-4.36171-9.74213-9.74213-9.74213Z"/><path fill="#fd8600" d="M244.48769,308.60972h-19.47998c0-5.38,4.35999-9.73999,9.73999-9.73999,1.60999,0,3.13,.38989,4.45996,1.07996-.05286,.12286-.10673,.24673-.16262,.37035-.41871,.92608,.24718,1.99048,1.26291,1.95541,.33154-.01145,.65958-.02877,.98098-.05196l1.24276,.52716c1.22485,1.63546,1.95601,3.66291,1.95601,5.85907Z"/><path fill="#e6e6e6" d="M235.00344,322.60972c7.17969,0,13-5.82031,13-13h-26c0,7.17969,5.82031,13,13,13Z"/></g><g><path fill="#fd8600" d="M441.74556,213.86759c-5.38042,0-9.74213,4.36171-9.74213,9.74213h19.48425c0-5.38042-4.36171-9.74213-9.74213-9.74213Z"/><path fill="#fd8600" d="M451.48769,220.60972h-19.47998c0-5.38,4.35999-9.73999,9.73999-9.73999,1.60999,0,3.13,.38989,4.45996,1.07996-.05286,.12286-.10673,.24673-.16262,.37035-.41871,.92608,.24718,1.99048,1.26291,1.95541,.33154-.01145,.65958-.02877,.98098-.05196l1.24276,.52716c1.22485,1.63546,1.95601,3.66291,1.95601,5.85907Z"/><path fill="#e6e6e6" d="M442.00344,234.60972c7.17969,0,13-5.82031,13-13h-26c0,7.17969,5.82031,13,13,13Z"/></g><g><ellipse cx="140.212" cy="178.833" fill="#fd8600" rx="12.463" ry="12.201"/><path fill="#f2f2f2" d="M240.12473,174.65933h-67.08496c-2.30142,0-4.17392-1.87249-4.17392-4.17392s1.87249-4.17392,4.17392-4.17392h67.08496c2.30142,0,4.17392,1.87249,4.17392,4.17392s-1.87249,4.17392-4.17392,4.17392Z"/><path fill="#f2f2f2" d="M292.47806,188.78644h-119.43829c-2.30142,0-4.17392-1.87249-4.17392-4.17392s1.87249-4.17392,4.17392-4.17392h119.43829c2.30142,0,4.17392,1.87249,4.17392,4.17392s-1.87249,4.17392-4.17392,4.17392Z"/></g><g><path fill="#f2f2f2" d="M240.12473,219.65933h-67.08496c-2.30142,0-4.17392-1.87249-4.17392-4.17392s1.87249-4.17392,4.17392-4.17392h67.08496c2.30142,0,4.17392,1.87249,4.17392,4.17392s-1.87249,4.17392-4.17392,4.17392Z"/><path fill="#f2f2f2" d="M292.47806,233.78644h-119.43829c-2.30142,0-4.17392-1.87249-4.17392-4.17392s1.87249-4.17392,4.17392-4.17392h119.43829c2.30142,0,4.17392,1.87249,4.17392,4.17392s-1.87249,4.17392-4.17392,4.17392Z"/></g><g><ellipse cx="136.212" cy="51.833" fill="#fd8600" rx="12.463" ry="12.201"/><path fill="#f2f2f2" d="M236.12473,47.65933h-67.08496c-2.30142,0-4.17392-1.87249-4.17392-4.17392s1.87249-4.17392,4.17392-4.17392h67.08496c2.30142,0,4.17392,1.87249,4.17392,4.17392s-1.87249,4.17392-4.17392,4.17392Z"/><path fill="#f2f2f2" d="M288.47806,61.78644h-119.43829c-2.30142,0-4.17392-1.87249-4.17392-4.17392s1.87249-4.17392,4.17392-4.17392h119.43829c2.30142,0,4.17392,1.87249,4.17392,4.17392s-1.87249,4.17392-4.17392,4.17392Z"/></g><path fill="#f2f2f2" d="M286.4413,439.9105l-1.90723-.60156,12.93311-41.0083c1.09399-3.46924-8.82861,43.24219-10.97949,40.30908-2.15088-2.93359,3.84595-55,.20825-55H126.65444c-3.42139,0-1.01245,51.34229-3.16675,54-2.15454,2.65771-8.59082-43.71582-7.88281-40.36865l7.86108,37.16162-1.95654,.41406-7.86108-37.16162c-.8335-3.93994,.14282-7.99414,2.67871-11.12256s6.30005-4.92285,10.32739-4.92285h160.0415c4.28174,0,8.18945,1.98047,10.72119,5.43359,2.53174,3.45264,3.24512,7.77539,1.95728,11.85889l-12.93311,41.0083Z"/><path fill="#f2f2f2" d="M233.97186,370.18489l1.93,.61,32.90999,10.38002c4.08,1.28,8.4,.57,11.86-1.95999,3.45-2.53,5.43-6.44,5.43001-10.72l.00008-39.04c0-4.03-1.79-7.79-4.91999-10.33-3.13-2.54-7.19-3.51-11.13-2.68001l-35.17,7.43998-1.99,.42,.02,.09,.4,1.87,.32-.07,1.96-.41,34.88-7.37998c3.35-.71,6.79,.12,9.45,2.27,2.66,2.16,4.18,5.36,4.18,8.78l-.00008,39.04c0,3.64-1.68,6.96-4.62,9.11-2.93,2.15-6.6,2.75-10.07,1.66l-33.31999-10.50002-1.99-.63-.13,2.05Z"/><path fill="#f2f2f2" d="M184.23186,327.76828l-1.93-.61-32.90999-10.38003c-4.08-1.28-8.4-.57001-11.86,1.95999-3.45,2.53-5.43001,6.44-5.43001,10.72l-.00009,39.04c0,4.03,1.78999,7.79,4.91999,10.33s7.19,3.51001,11.13,2.68001l35.17001-7.43997,1.99-.42-.02-.09-.4-1.87-.32,.07-1.96,.41-34.88001,7.37997c-3.35,.71-6.79-.12001-9.45-2.27001-2.66-2.16-4.18-5.36-4.17999-8.78l.00009-39.04c0-3.64,1.68001-6.96,4.62001-9.11,2.93-2.15,6.6-2.74999,10.07-1.65999l33.31999,10.50003,1.99,.63,.13-2.05Z"/><path fill="#ffb6b6" d="M444.65266,226.02143l17.96525-3.85537,3.63428,9.95549-19.13901,3.40031c-.36927,.46487-.81125,.88463-1.32536,1.23918-2.7962,1.92836-6.62623,1.22483-8.55459-1.57137-1.92836-2.7962-1.22483-6.62623,1.57137-8.55459,1.78326-1.2298,3.98528-1.38485,5.84806-.61366Z"/><path fill="#3f3d56" d="M498.86723,172.77841h.00001c4.27573-.98671,8.61526,1.41986,10.0118,5.57981,2.18963,6.52237,4.49317,16.01826,2.11138,22.27046l-1.96752,16.23205-2.4594,8.85385v1.26843l-52.63119,7.58541-2.4594-12.78889,33.93974-5.41068,.98376-5.90256,.91792-.91792,1.26069-6.70623,3.78236-23.11893c.55976-3.4214,3.13175-6.16524,6.50986-6.9448Z"/><g><path fill="#fd8600" d="M182.74556,348.86759c-5.38042,0-9.74213,4.36171-9.74213,9.74213h19.48425c0-5.38042-4.36171-9.74213-9.74213-9.74213Z"/><path fill="#fd8600" d="M192.48769,355.60972h-19.47998c0-5.38,4.35999-9.73999,9.73999-9.73999,1.60999,0,3.13,.38989,4.45996,1.07996-.05286,.12286-.10673,.24673-.16262,.37035-.41871,.92608,.24718,1.99048,1.26291,1.95541,.33154-.01145,.65958-.02877,.98098-.05196l1.24276,.52716c1.22485,1.63546,1.95601,3.66291,1.95601,5.85907Z"/><path fill="#e6e6e6" d="M183.00344,369.60972c7.17969,0,13-5.82031,13-13h-26c0,7.17969,5.82031,13,13,13Z"/></g><circle cx="177.196" cy="354.492" r="1.66" fill="#3f3d56"/><circle cx="243.196" cy="307.492" r="1.66" fill="#3f3d56"/><rect width="30" height="5" x="221.102" y="364.872" fill="#f2f2f2"/><rect width="30" height="5" x="168.102" y="367.872" fill="#f2f2f2"/><rect width="30" height="5" x="168.102" y="325.872" fill="#f2f2f2"/><rect width="30" height="5" x="221.102" y="321.872" fill="#f2f2f2"/><g><circle cx="139.862" cy="222.875" r="10.521" fill="#fff"/><path fill="#3f3d56" d="M139.86163,234.11569c-6.19799,0-11.24023-5.04225-11.24023-11.24023s5.04225-11.24023,11.24023-11.24023,11.24023,5.04225,11.24023,11.24023-5.04225,11.24023-11.24023,11.24023Zm0-21.3348c-5.56613,0-10.09456,4.52843-10.09456,10.09456s4.52843,10.09456,10.09456,10.09456,10.09456-4.52843,10.09456-10.09456-4.52843-10.09456-10.09456-10.09456Z"/><path fill="#fd8600" d="M138.42647,228.3509c-.36773,0-.71478-.17296-.93612-.46821l-2.87019-3.82698c-.38782-.51697-.28306-1.25052,.23401-1.63834,.51716-.38801,1.25061-.28325,1.63843,.2341l1.87777,2.50351,4.82282-7.23413c.35858-.53792,1.08537-.68231,1.62291-.32458,.53783,.35849,.68316,1.08518,.32458,1.62291l-5.74037,8.61056c-.21067,.31601-.56164,.51011-.94127,.52078l-.03257,.00038Z"/></g><g><path fill="#e6e6e6" d="M236.6182,287.84004c2.65624-5.99507,3.29676-12.76915,1.8692-19.16587-1.39065-6.23133-4.86509-11.89676-9.67587-16.07848-2.6855-2.33434-5.77059-4.20315-9.09827-5.46531-.79658-.30214-1.4239,.88117-.61887,1.18651,5.66355,2.14814,10.5849,6.05791,13.96466,11.0855,3.46422,5.15323,5.10406,11.33051,4.80538,17.52339-.1708,3.54149-.99651,7.05384-2.43274,10.29539-.34766,.78465,.83681,1.40814,1.18651,.61887h0Z"/><path fill="#e6e6e6" d="M223.60742,243.1447l-11.47398-.52725c-.41734-.01918-.76604,.48533-.61446,.86954l4.64304,11.76867c.31424,.79651,1.5933,.40137,1.2766-.40138l-4.64304-11.76867-.61446,.86954,11.47398,.52725c.86163,.03959,.80706-1.29842-.04767-1.3377h0Z"/></g><g><path fill="#e6e6e6" d="M411.44506,78.50972c-1.23922-6.43901-4.57833-12.36765-9.40052-16.80639-4.69751-4.32398-10.78344-6.99425-17.12025-7.68355-3.53737-.38478-7.13728-.15925-10.59028,.7029-.82658,.20638-.66659,1.5361,.16875,1.32753,5.87683-1.46734,12.14929-1.06446,17.79352,1.136,5.78528,2.25546,10.6566,6.39287,13.94483,11.64916,1.88042,3.00589,3.20638,6.36152,3.87642,9.8431,.16219,.84276,1.49067,.67896,1.32753-.16875h0Z"/><path fill="#e6e6e6" d="M375.25794,49.22755l-9.72378,6.11377c-.35368,.22237-.35219,.83566-.00849,1.0647l10.528,7.01575c.71254,.47483,1.53751-.57948,.81938-1.05803l-10.528-7.01575-.00849,1.0647,9.72378-6.11377c.7302-.45911-.07805-1.52681-.80241-1.07138h0Z"/></g></svg>